<?xml version="1.0" encoding="UTF-8" standalone="no"?>
<!-- Created with Inkscape (http://www.inkscape.org/) -->

<svg
   width="226.03644"
   height="224.98442"
   viewBox="0 0 59.805473 59.527128"
   version="1.1"
   id="svg59324"
   xmlns="http://www.w3.org/2000/svg"
   xmlns:svg="http://www.w3.org/2000/svg">
  <defs
     id="defs59321" />
  <path
     style="fill:#24a3c0;fill-opacity:1;stroke:#005a52;stroke-width:1"
     d="m 14.971691,4.4547157 14.557034,-4.01764645 9.287623,2.67394575 5.004581,6.7829207 3.794106,8.9264593 2.03453,6.719183 -1.477225,5.546373 0.652132,0.173154 3.258415,-2.219693 1.995813,4.772001 -7.515974,7.907155 -5.510649,3.065317 -0.21014,5.191916 -4.462843,0.200499 -14.017853,-2.985368 -4.46828,-0.06572 -4.736584,-1.87207 0.01076,-8.339084 -5.7070073,-4.320003 0.2053804,-1.914287 7.4760519,-2.736638 1.304697,-2.505757 -3.079065,-2.302494 -1.078976,-8.171743 0.727023,-7.4004808"
     id="path60986" />
  <path
     style="fill:#f0f546;fill-opacity:1;stroke:#005a52;stroke-width:1"
     d="m 1.8586124,24.403184 2.7362187,3.136244 2.0383627,2.001677 3.9576512,-0.380744 4.164187,-2.454243 -1.932928,-3.2646 -1.803908,-5.83959 -2.5218173,3.076159 -2.8367958,-2.254539 -1.7729797,2.301907 1.7093345,3.816393 -3.0041985,0.583222"
     id="path65416" />
  <path
     style="fill:#f0f546;fill-opacity:1;stroke:#005a52;stroke-width:1"
     d="m 51.097177,29.297852 0.838615,-3.324791 1.067141,0.15935 2.210756,1.80126 1.53222,0.451487 1.951331,-1.550495 0.314619,1.670968 -0.574164,2.255115 -0.970712,2.182715 -1.988555,0.619948 -1.266994,-0.235964 -1.308005,-1.39215"
     id="path66390" />
  <path
     style="fill:#8faca2;fill-opacity:1;stroke:#005a52;stroke-width:1"
     d="m 11.737307,49.700664 2.115762,-2.717917 1.609986,-0.649671 2.250729,0.863187 1.735098,1.256295 0.07865,2.118672 -2.693828,3.733967 -1.250078,0.03959 -2.098012,-2.91583 -0.29079,-0.262253"
     id="path66392" />
  <path
     style="fill:#8faca2;fill-opacity:1;stroke:#005a52;stroke-width:1"
     d="m 29.881353,53.280987 1.324245,-3.686853 3.507645,0.652532 1.24296,0.475078 -1.018051,3.164109 -0.737513,2.490989 -4.614558,-1.213694 -0.06604,-0.06614"
     id="path66718" />
  <path
     style="fill:#3ffc78;fill-opacity:1;stroke:#005a52;stroke-width:1"
     d="m 12.083723,50.480153 -1.253885,3.526266 0.235964,2.246794 1.361089,0.181017 2.533392,-2.034614 -1.868939,-3.389765"
     id="path66720" />
  <path
     style="fill:#3ffc78;fill-opacity:1;stroke:#005a52;stroke-width:1"
     d="m 28.572774,55.28497 6.037027,1.384482 0.161674,0.470181 -1.283539,0.926219 -2.177706,1.167551 -3.241169,-0.314619 -0.604258,-0.990174 0.174455,-0.527865"
     id="path67424" />
  <path
     style="fill:#7fbb4c;fill-opacity:1;stroke:#005a52;stroke-width:1"
     d="m 47.590903,13.309997 8.50108,-2.833891 0.638252,11.739693 -0.496763,4.704883 -1.297503,-0.216715 -2.002203,-1.228047 -1.258803,-3.268667 -1.856166,-5.662266"
     id="path67426" />
  <path
     style="fill:#7fbb4c;fill-opacity:1;stroke:#005a52;stroke-width:1"
     d="m 54.075631,36.361602 0.831146,-2.16576 1.717739,-0.101192 -0.148789,4.487521 -0.09412,7.266516 -2.096606,-1.729597"
     id="path69372" />
  <path
     style="fill:#2b2e27;fill-opacity:0.845712;stroke:#005a52;stroke-width:1"
     d="m 18.318884,21.716569 1.826829,-4.187415 13.536618,-5.003179 7.412421,-1.242157 1.909942,0.217198 0.800881,2.893363 2.497132,3.528975 0.948865,5.827746 -0.16047,4.08504 -2.408362,4.75865 -0.605919,0.667994 -10.953943,2.376294 -2.37389,0.470943 L 28.1247,33.614749 21.480187,29.47702 19.065268,27.510652 17.166173,23.27117"
     id="path69374" />
  <path
     d="m 32.742677,59.45726 v 0 c 0.745781,-0.39423 1.51855,-0.74136 2.23737,-1.18295 0.178038,-0.10927 0.378804,-0.25321 0.430318,-0.45588 0.123111,-0.48419 -0.108585,-1.02923 0.0663,-1.49728 0.111257,-0.29765 0.556524,-0.35004 0.724746,-0.61965 0.07207,-0.11562 -0.01378,-0.28549 -0.08967,-0.39846 -0.168116,-0.25056 -0.454025,-0.4072 -0.620157,-0.65881 -0.05265,-0.0799 -0.04583,-0.20082 -0.0039,-0.28681 0.188648,-0.38709 0.3869,-0.78291 0.679238,-1.09908 0.05638,-0.0609 0.119539,0.13652 0.202089,0.14578 0.123005,0.0135 0.315039,0.0315 0.361897,-0.0831 0.10197,-0.24923 0.04622,-0.54239 0.0026,-0.80803 -0.03069,-0.1868 -0.188331,-0.33682 -0.221165,-0.52335 -0.03101,-0.17595 -0.01045,-0.36221 0.03474,-0.53499 0.02614,-0.10001 0.169651,-0.15451 0.172429,-0.2577 0.0028,-0.10292 -0.137953,-0.16404 -0.158379,-0.26485 -0.0098,-0.0484 0.0454,-0.0892 0.07929,-0.12515 0.07927,-0.0841 0.154358,-0.18018 0.257546,-0.2323 0.08176,-0.041 0.180895,-0.0336 0.272468,-0.0352 0.616452,-0.0103 1.233434,-0.0222 1.849596,-2.7e-4 0.118242,0.004 0.243231,0.0204 0.346128,0.0788 0.341841,0.1942 0.607827,0.51885 0.971021,0.6694 0.129169,0.0534 0.32004,0.0106 0.407775,-0.0982 0.226034,-0.28046 0.240665,-0.69189 0.459529,-0.9779 0.218995,-0.28628 0.731335,-0.35137 0.824203,-0.69956 0.07189,-0.26961 -0.468471,-0.42757 -0.449289,-0.70591 0.05472,-0.79454 0.414126,-1.53908 0.656167,-2.29791 0.0939,-0.29448 0.208624,-0.58393 0.350441,-0.85857 0.05382,-0.10425 0.225054,-0.1487 0.230266,-0.26591 0.01074,-0.24262 -0.317473,-0.49874 -0.187272,-0.70352 0.362797,-0.57071 0.978139,-0.93583 1.50167,-1.36367 0.1896,-0.15504 0.441801,-0.22145 0.629734,-0.37835 0.403093,-0.33681 0.693473,-0.80751 1.133475,-1.09432 0.15367,-0.10027 0.37682,-0.0624 0.550307,-0.003 0.280538,0.0963 0.481436,0.36724 0.764884,0.45456 0.132874,0.041 0.291703,-0.0151 0.406453,-0.0937 0.198067,-0.13546 0.411189,-0.29792 0.494877,-0.52281 0.0939,-0.25241 0.04442,-0.54213 2.64e-4,-0.80777 -0.01749,-0.10504 -0.202644,-0.16114 -0.178673,-0.26512 0.06032,-0.26114 0.201242,-0.51858 0.400923,-0.6977 0.52078,-0.46699 1.173586,-0.76571 1.719157,-1.20359 0.3497,-0.28073 0.607086,-0.66517 0.957712,-0.94457 0.534644,-0.42624 1.486271,-1.81768 1.688412,-1.16469 0.844815,2.73023 0.328877,5.70733 0.597959,8.55239 0.04789,0.50721 0.08493,1.05304 0.351366,1.48722 0.207169,0.33814 0.585788,0.6141 0.977107,0.67866 0.225954,0.0373 0.312737,-0.38047 0.536575,-0.42915 0.151606,-0.0331 0.31062,0.10292 0.408516,0.22357 0.207169,0.25532 0.251619,0.62336 0.475192,0.86466 0.181769,0.19632 0.4318,0.35904 0.696383,0.39925 0.156633,0.0238 0.325173,-0.10027 0.415925,-0.23018 0.30824,-0.44001 0.523081,-0.9398 0.745596,-1.42849 0.03889,-0.0852 0.02963,-0.18547 0.03228,-0.27914 0.004,-0.13255 0.08202,-0.30453 -0.01243,-0.39793 -0.28919,-0.28654 -0.867304,-0.27358 -1.038225,-0.6432 -0.224102,-0.48498 -0.03387,-1.06945 2.64e-4,-1.60258 0.211932,-3.33613 0.380736,-6.67782 0.737923,-10.00152 0.01905,-0.17912 0.29554,-0.22622 0.377825,-0.38629 0.203994,-0.39634 0.279665,-0.84799 0.465402,-1.25306 0.154517,-0.33629 0.318559,-0.67628 0.551921,-0.96362 0.201877,-0.24871 0.563033,-0.34951 0.733954,-0.62018 0.09657,-0.15293 0.04154,-0.36645 5.29e-4,-0.5424 -0.02381,-0.10133 -0.157691,-0.15081 -0.186266,-0.25082 -0.04948,-0.17225 -0.03757,-0.35692 -0.03889,-0.53605 -0.01032,-1.41076 -0.05874,-2.8231 0.0037,-4.23254 0.0085,-0.18944 0.234686,-0.34237 0.207434,-0.53022 -0.02355,-0.16193 -0.187325,-0.29025 -0.336815,-0.35745 -0.162983,-0.0733 -0.357452,-0.0542 -0.535252,-0.0349 -0.140758,0.0154 -0.332317,0.0132 -0.402431,0.13653 -0.410369,0.72125 -0.545571,1.58088 -0.977636,2.28917 -0.240241,0.39423 -0.590021,0.74771 -1.001977,0.95647 -0.12991,0.0659 -0.209285,-0.20823 -0.337344,-0.27755 -0.2921,-0.15743 -0.653256,-0.19023 -0.912812,-0.39714 -0.380735,-0.30321 -0.574146,-0.80539 -0.963613,-1.09722 -0.147637,-0.1106 -0.468312,0.1262 -0.551656,-0.0381 -0.460375,-0.90514 -0.582612,-1.9476 -0.940858,-2.89772 -0.192617,-0.51118 -0.514086,-0.96732 -0.708554,-1.4777 -0.238469,-0.6268 -0.441775,-1.26973 -0.586396,-1.92458 -0.290777,-1.3163 -0.383752,-2.67414 -0.717788,-3.98039 -0.03678,-0.14393 -0.219869,-0.28496 -0.365337,-0.25506 -0.224552,0.0463 -0.311626,0.50985 -0.529643,0.43895 -0.316918,-0.10319 -0.909955,-0.69877 -0.593884,-0.80434 1.619224,-0.54134 3.377248,-0.51011 5.074814,-0.69374 0.127265,-0.0138 0.357982,-0.0228 0.369888,0.10504 0.03942,0.41672 -0.194733,0.81624 -0.243681,1.2319 -0.189707,1.61687 -0.457994,3.23295 -0.471488,4.86066 -0.0037,0.43233 0.125413,0.91096 0.420423,1.22688 0.338931,0.36301 1.125802,0.20664 1.337469,0.6559 0.189177,0.40217 -0.354277,0.82338 -0.43524,1.26021 -0.06615,0.35772 -0.0553,0.73131 -5.29e-4,1.09088 0.09234,0.60219 0.251883,1.19433 0.438679,1.77429 0.02434,0.0757 0.104511,0.13759 0.182298,0.15399 0.176742,0.0376 0.373856,0.0661 0.542131,2.6e-4 0.153194,-0.0603 0.318029,-0.18838 0.348192,-0.3503 0.0344,-0.18362 -0.153194,-0.34502 -0.183621,-0.52943 -0.04339,-0.263 -0.06429,-0.53393 -0.03545,-0.79878 0.221721,-2.03465 0.634735,-4.04813 0.786342,-6.08912 0.111125,-1.49437 0.06165,-2.998 -2.65e-4,-4.49527 -0.0079,-0.18945 -0.198437,-0.34052 -0.207433,-0.52996 -0.005,-0.10266 0.138906,-0.15928 0.169862,-0.25744 0.02805,-0.0886 0.03016,-0.19103 0,-0.27887 -0.0336,-0.0974 -0.148166,-0.15267 -0.181504,-0.2503 -0.03016,-0.0878 -0.05503,-0.20426 2.65e-4,-0.27914 0.283104,-0.38338 0.820208,-0.59399 0.977106,-1.04404 0.203994,-0.585 0.06085,-1.23905 0.03545,-1.85817 -0.0058,-0.13758 -0.0463,-0.28178 -0.127794,-0.39291 C 57.930339,9.07165 57.778468,8.84173 57.549339,8.77029 57.20538,8.6634 56.814062,8.66472 56.468516,8.76629 c -1.328738,0.39158 -2.619904,0.91069 -3.888317,1.46791 -1.259893,0.55351 -2.480336,1.19618 -3.685831,1.86028 -0.525383,0.28946 -1.146836,0.51012 -1.49897,0.99563 -0.209709,0.28919 -0.119486,0.73501 -1.33e-4,1.07156 0.07419,0.20929 0.371052,0.24977 0.525198,0.40958 0.21344,0.22119 0.412195,0.46117 0.569728,0.72496 0.30226,0.50667 0.588407,1.02737 0.803777,1.57638 0.568167,1.4486 1.094211,2.91598 1.542601,4.40611 0.315171,1.04722 0.700246,2.10264 0.744802,3.19564 0.01656,0.4064 -0.42254,0.69982 -0.570548,1.0787 -0.367982,0.94192 -0.697971,1.9005 -0.973455,2.87364 -0.05006,0.17701 -0.06593,0.38153 0.0038,0.55166 0.08612,0.20981 0.541761,0.3212 0.436668,0.52229 -0.341444,0.65352 -0.98163,1.10595 -1.539425,1.58803 -0.102685,0.0889 -0.264318,0.11059 -0.39796,0.0865 -0.05572,-0.01 -0.06175,-0.11271 -0.04027,-0.1651 0.09271,-0.22595 0.223388,-0.43682 0.367929,-0.63367 0.11221,-0.15293 0.347557,-0.2249 0.396637,-0.40799 0.412459,-1.54014 0.691542,-3.11415 0.967105,-4.68471 0.0476,-0.27147 0.05056,-0.55563 -1.85e-4,-0.82656 C 50.12975,23.91394 49.976106,23.37816 49.777721,22.86222 49.262419,21.52184 48.577016,20.24946 48.093966,18.89717 47.698255,17.78936 47.549268,16.60297 47.14689,15.49754 46.884529,14.77682 46.487152,14.11139 46.10893,13.44411 45.805717,12.90939 45.40019,12.43605 45.105444,11.89656 44.337386,10.4903 43.744031,8.98959 42.924034,7.61296 42.696493,7.2309 42.23961,7.02929 41.987886,6.66284 41.26769,5.61403 40.810066,4.3906 40.024016,3.39047 39.516598,2.74489 38.853208,2.21784 38.154946,1.78578 37.561539,1.41827 36.88656,1.17115 36.203935,1.02616 34.077453,0.57451 31.924961,0.23056 29.762972,0.00354 29.430046,-0.03136 29.120404,0.20225 28.788696,0.24722 26.891187,0.50546 24.972442,0.60468 23.082375,0.91265 22.405306,1.02298 21.741387,1.23147 21.109615,1.4987 20.562113,1.73021 20.123248,2.18133 19.569846,2.39855 18.50802,2.81527 17.348854,2.95391 16.294093,3.38809 15.879834,3.55875 15.634407,4.02997 15.216365,4.1911 15.042005,4.2583 14.871322,4.03659 14.686775,4.00748 14.455159,3.97068 14.188803,3.88234 13.983301,3.99528 c -0.263181,0.14473 -0.415158,0.44291 -0.559276,0.7067 -0.23114,0.42254 -0.418042,0.87234 -0.556498,1.33403 -0.224684,0.74877 -0.37764,1.51792 -0.529299,2.28494 -0.156184,0.79005 -0.329301,1.58063 -0.39378,2.38337 -0.009,0.11218 0.190818,0.17436 0.179282,0.28628 -0.08184,0.79454 -0.375735,1.5584 -0.451167,2.35373 -0.01807,0.19024 0.181663,0.35481 0.17608,0.54584 -0.0055,0.18971 -0.187008,0.34158 -0.207407,0.53022 -0.03818,0.35269 -0.02003,0.71359 0.03498,1.06416 0.01603,0.10213 0.171926,0.15425 0.172455,0.2577 5.29e-4,0.10266 -0.138906,0.15928 -0.169915,0.25744 -0.02807,0.0886 -0.03006,0.19103 1.06e-4,0.27887 0.03336,0.0974 0.148325,0.15267 0.181186,0.2503 0.02961,0.0878 0.0784,0.23416 -0.0032,0.27834 -0.106204,0.0574 -0.238099,-0.12594 -0.352081,-0.0857 -0.167984,0.059 -0.30017,0.20531 -0.402643,0.35083 -0.272918,0.38788 -0.426376,0.85302 -0.711412,1.23217 -0.46601,0.61939 -0.820049,1.44251 -1.531646,1.75022 -0.3615,0.15637 -0.677545,-0.40878 -0.976154,-0.6657 C 7.771231,19.29302 7.753928,19.11756 7.648994,19.01411 7.429945,18.79847 7.182507,18.61036 6.923718,18.44446 6.530336,18.19205 6.120681,17.96319 5.698406,17.76316 c -0.08504,-0.0405 -0.186346,-0.0328 -0.280432,-0.0325 -0.178302,7.9e-4 -0.361632,-0.0111 -0.533691,0.0354 -0.07906,0.0214 -0.152691,0.0852 -0.186663,0.15981 -0.360998,0.79163 -0.231722,1.9857 -0.987928,2.41591 -0.610817,0.34766 -1.298495,-0.55139 -1.978819,-0.7276 -0.263207,-0.068 -0.58457,-0.13944 -0.815604,0.004 -0.302842,0.18786 -0.444923,0.56251 -0.608277,0.87921 -0.02426,0.0471 0.04501,0.0998 0.08594,0.13335 0.134197,0.10981 0.309087,0.16775 0.431721,0.29052 0.436615,0.43656 0.771843,0.97287 1.237245,1.37874 0.516334,0.45032 1.14755,0.75142 1.688147,1.1721 0.167561,0.13044 0.397669,0.26327 0.426059,0.47361 0.01638,0.12144 -0.223282,0.11351 -0.345123,0.12647 -0.180102,0.019 -0.373486,0.0333 -0.542396,-0.032 -0.717841,-0.27755 -1.381019,-0.68157 -2.088144,-0.98531 -0.08644,-0.0373 -0.186293,-0.0328 -0.280379,-0.0325 -0.178594,8e-4 -0.365257,-0.0214 -0.534591,0.0352 -0.109405,0.0368 -0.212275,0.12489 -0.258313,0.23045 C 0.038368,23.49202 -1.33e-4,23.72088 0,23.9434 c 7.9e-5,0.12885 0.05577,0.25797 0.127793,0.36486 0.30398,0.45085 0.700935,0.83582 0.991447,1.29566 0.181504,0.28734 0.174731,0.69109 0.415422,0.93081 0.25109,0.25003 0.670428,0.24897 0.965597,0.44503 0.238178,0.15822 0.371158,0.44635 0.610738,0.60245 0.295963,0.19288 0.63582,0.31221 0.969724,0.42757 0.142505,0.0492 0.328348,-0.0296 0.447993,0.0622 0.242517,0.186 0.406532,0.45984 0.569807,0.71808 0.377242,0.5969 0.736547,1.20729 1.04775,1.84097 0.367664,0.74877 0.52652,1.6039 0.985652,2.30028 0.400447,0.60749 0.964935,1.10305 1.546278,1.54067 0.880639,0.66252 1.847532,1.20571 2.811991,1.73911 0.131631,0.0728 0.341419,-0.0442 0.446855,0.063 0.431271,0.43921 0.802561,0.94747 1.083522,1.49516 0.242305,0.47202 0.424577,0.99351 0.465031,1.52268 0.09538,1.24804 0.480034,2.62625 -0.06165,3.7547 -0.364569,0.75935 -0.340677,-1.651 -0.557371,-2.46512 -0.18071,-0.67892 -0.384466,-1.35335 -0.633756,-2.01031 -0.03016,-0.0794 -0.109617,-0.14869 -0.192617,-0.16748 -0.176477,-0.0397 -0.38346,-0.0839 -0.542581,0.002 -0.110331,0.0598 -0.112951,0.23124 -0.120835,0.35639 -0.02246,0.35719 -0.03543,0.72152 0.0309,1.07315 0.183568,0.9734 0.546471,1.90818 0.715513,2.88396 0.01836,0.10583 -0.169148,0.16774 -0.168302,0.27517 7.94e-4,0.10345 0.159068,0.15504 0.172456,0.2577 0.05747,0.43921 0.07419,0.88741 0.035,1.32874 -0.02479,0.27966 -0.267917,0.53393 -0.224896,0.81147 0.148432,0.95674 0.398172,1.90897 0.784675,2.79665 0.102526,0.23548 0.395552,0.33681 0.627565,0.44688 0.04781,0.0228 0.09422,-0.0503 0.133589,-0.0857 0.118057,-0.1061 0.256222,-0.20003 0.336602,-0.33682 0.168223,-0.28654 0.228151,-0.62812 0.397854,-0.9136 0.152347,-0.25639 0.345017,-0.49107 0.559806,-0.69798 0.03953,-0.0378 0.117395,-0.0278 0.164597,2.7e-4 0.133244,0.0788 0.215503,0.22913 0.35052,0.30506 0.899451,0.50589 1.881823,0.86678 2.743227,1.4351 0.388196,0.25586 0.819308,0.56727 0.962765,1.00965 0.08364,0.25797 -0.247755,0.48472 -0.406982,0.70432 -0.117607,0.16219 -0.317817,0.2585 -0.417486,0.43207 -0.260588,0.45429 -0.39452,0.97314 -0.650795,1.42981 -0.136393,0.24315 -0.242888,0.69162 -0.519272,0.65537 -0.322024,-0.0421 -0.328506,-0.56965 -0.560599,-0.79692 -0.225451,-0.22067 -0.508555,-0.37809 -0.788458,-0.52361 -0.81497,-0.42387 -1.672617,-0.76148 -2.489729,-1.1811 -0.171635,-0.0881 -0.38616,-0.16431 -0.469477,-0.33841 -0.3302,-0.6895 -0.45294,-1.46182 -0.733213,-2.17328 -0.03,-0.0762 -0.108347,-0.13468 -0.186082,-0.15981 -0.124486,-0.0408 -0.329538,-0.14367 -0.391768,-0.0286 -0.279771,0.51806 -0.391187,1.11443 -0.506757,1.69175 -0.05347,0.26696 -0.04164,0.54874 0.0045,0.81703 0.01828,0.10636 0.197855,0.16113 0.181927,0.26802 -0.09951,0.66728 -0.376978,1.29726 -0.513794,1.95792 -0.190368,0.91943 -0.354224,1.84573 -0.466752,2.7776 -0.0535,0.44317 -0.05524,0.89297 -0.03016,1.33852 0.0077,0.13759 0.0462,0.28205 0.127608,0.39317 0.141817,0.19342 0.289217,0.44001 0.52287,0.49451 0.522579,0.12224 1.094846,0.15425 1.609963,0.004 0.90678,-0.26485 1.746435,-0.7366 2.557383,-1.22106 0.340043,-0.2032 0.495194,-0.66542 0.859711,-0.82073 0.371528,-0.15796 0.856985,0.13652 1.209807,-0.0598 0.300408,-0.16722 0.293741,-0.62918 0.509641,-0.89667 0.338957,-0.42016 0.818303,-0.71649 1.141015,-1.14909 0.453496,-0.60801 0.742553,-1.3253 1.171178,-1.95104 0.120492,-0.17594 0.273844,-0.34528 0.465588,-0.43868 0.106283,-0.0516 0.243125,-0.005 0.352134,0.041 0.225292,0.0942 0.441139,0.21828 0.631851,0.37094 0.312658,0.2503 0.50964,0.65273 0.868786,0.82973 0.241564,0.11933 0.587878,0.15293 0.808156,-0.002 0.172424,-0.12145 0.150186,-0.42625 0.08544,-0.6268 -0.08813,-0.27331 -0.297839,-0.50086 -0.511199,-0.69294 -0.381926,-0.3437 -1.013804,-0.44159 -1.254363,-0.89562 -0.126894,-0.23945 0.242385,-0.48842 0.406717,-0.70379 0.129382,-0.1696 0.253736,-0.41196 0.46527,-0.43974 0.969571,-0.12647 1.964312,-0.13441 2.933407,-0.004 0.703249,0.0945 1.364628,0.39926 2.020546,0.66992 0.572254,0.23628 1.06172,0.66358 1.653249,0.84614 0.343879,0.1061 0.723053,0.0463 1.079579,-0.003 0.186769,-0.0257 0.334936,-0.1958 0.522235,-0.21723 0.123825,-0.014 0.295989,0.007 0.355256,0.11668 0.0875,0.16193 0.05927,0.37598 0.0061,0.55192 -0.207354,0.68607 -0.409919,1.38933 -0.778537,2.00369 -0.189918,0.31671 -0.647938,0.40138 -0.849683,0.71041 -0.528981,0.81068 -0.973852,1.68434 -1.306253,2.59345 -0.337772,0.92366 -0.498065,1.9042 -0.69093,2.86887 -0.01072,0.0534 0.05345,0.0963 0.0899,0.13679 0.10324,0.11536 0.184436,0.27014 0.32753,0.32888 0.484921,0.19897 0.994707,0.3519 1.513502,0.42704 0.10623,0.0153 0.167613,-0.17304 0.274849,-0.16775 0.189521,0.009 0.340518,0.20003 0.530119,0.20744 m 1.334399,-1.09935 v 0 c -0.882967,-0.15928 -1.79578,-0.20002 -2.648849,-0.47784 -0.137054,-0.0447 -0.134461,-0.27834 -0.105437,-0.41936 0.09131,-0.4445 0.276305,-0.86598 0.45511,-1.28297 0.06046,-0.14102 0.105675,-0.39766 0.258313,-0.38126 1.733603,0.1868 3.437969,0.59134 5.141568,0.96282 0.07673,0.0167 0.171477,0.11721 0.140415,0.18918 -0.08377,0.19446 -0.261435,0.33734 -0.425133,0.47148 -0.240506,0.19685 -0.496623,0.38206 -0.778113,0.51409 -0.396425,0.186 -0.807005,0.37015 -1.240393,0.43259 -0.188939,0.0272 -0.354356,-0.17303 -0.545227,-0.17515 M 11.781317,55.86529 v 0 c -0.122528,-0.0542 -0.344196,-0.0304 -0.367559,-0.16245 -0.123481,-0.69691 -0.143404,-1.42346 -0.03736,-2.12328 0.126868,-0.83741 0.316892,-1.69387 0.727895,-2.4347 0.09155,-0.16483 0.288476,0.24792 0.402114,0.39846 0.412618,0.5469 0.745331,1.15226 1.172131,1.68804 0.326125,0.40932 0.785706,0.70697 1.08024,1.13983 0.04958,0.0728 -0.08766,0.16219 -0.162692,0.20823 -0.835713,0.51488 -1.661477,1.05727 -2.554287,1.46526 m 21.32703,-0.51779 v 0 c -0.237913,2.6e-4 -0.480007,0.0452 -0.713713,7.9e-4 -0.635556,-0.12091 -1.275371,-0.25585 -1.877034,-0.49344 -0.160893,-0.0638 -0.37846,-0.21538 -0.347477,-0.3855 0.194892,-1.07077 0.613568,-2.08968 0.98425,-3.11256 0.02852,-0.0789 0.115305,-0.1569 0.199019,-0.15372 0.102659,0.004 0.157639,0.14261 0.256249,0.17145 0.130096,0.0381 0.30861,0.11694 0.40603,0.0225 0.292444,-0.28284 0.307472,-0.80751 0.643017,-1.03744 0.225028,-0.15451 0.555096,-0.0381 0.817774,0.0355 0.137874,0.0389 0.189838,0.22939 0.322024,0.28443 0.425477,0.17727 1.303258,-0.059 1.323393,0.40137 0.04736,1.08453 -0.709903,2.05608 -1.173189,3.03794 M 15.744007,53.7156 v 0 c -0.473022,-0.48445 -1.017428,-0.90831 -1.419039,-1.45335 -0.0731,-0.0992 -0.0245,-0.29978 0.08281,-0.36037 0.118719,-0.0669 0.298344,-0.003 0.399495,0.0879 0.552899,0.49979 1.123817,1.00965 1.516036,1.64332 0.07564,0.12224 -0.177986,0.26829 -0.320278,0.28866 m 21.970682,-4.44923 v 0 c -1.462749,-0.006 -2.950237,0.25188 -4.388221,-0.0161 -0.338878,-0.0632 -0.284877,-0.63976 -0.513371,-0.89773 -0.09361,-0.10583 -0.26027,-0.13018 -0.401399,-0.136 -0.710062,-0.0294 -1.427983,-0.0677 -2.131774,0.031 -0.453232,0.0638 -0.841587,0.40693 -1.297226,0.45006 -0.147002,0.0138 -0.376105,-0.15611 -0.329433,-0.29634 0.07729,-0.23204 0.427117,-0.25929 0.578459,-0.45164 0.08586,-0.10901 0.185896,-0.29898 0.09618,-0.40508 -0.253894,-0.29951 -0.680191,-0.39846 -0.985996,-0.64479 -0.03855,-0.0312 -0.01601,-0.10213 0.0013,-0.14869 0.283236,-0.75989 0.637936,-1.49305 0.89699,-2.2614 0.60116,-1.78329 1.234202,-3.56129 1.682168,-5.38903 0.119539,-0.48789 0.159597,-1.02791 0.0079,-1.50654 -0.07755,-0.24447 -0.372401,-0.47942 -0.627009,-0.44688 -0.288581,0.0368 -0.521811,0.33576 -0.626957,0.60695 -0.06937,0.17913 0.19947,0.35613 0.179626,0.54716 -0.06728,0.64638 -0.257837,1.27556 -0.434393,1.90103 -0.319458,1.13216 -0.672465,2.25531 -1.052645,3.36868 -0.494215,1.44727 -0.641151,3.09589 -1.569791,4.31085 -0.293799,0.38444 -0.8993,-0.39131 -1.37931,-0.45217 -2.213174,-0.28019 -4.466217,-0.21114 -6.668476,-0.56726 -0.242438,-0.0392 -0.264769,-0.42202 -0.449871,-0.58341 -0.202063,-0.17621 -0.436484,-0.32729 -0.691145,-0.41116 -0.174255,-0.0574 -0.370734,-0.0347 -0.550307,0.003 -0.185393,0.0386 -0.336841,0.18839 -0.523319,0.22119 -0.176081,0.031 -0.373671,0.0415 -0.535147,-0.0352 -0.35642,-0.16906 -0.667596,-0.42492 -0.969406,-0.67892 -0.258604,-0.21775 -0.656829,-0.39528 -0.70411,-0.72998 -0.210026,-1.4867 -0.08662,-3.00355 -0.03532,-4.504 0.0065,-0.18945 0.198966,-0.34052 0.207433,-0.52996 0.0046,-0.10319 -0.150998,-0.15664 -0.17227,-0.25771 -0.0372,-0.17674 -0.04688,-0.36856 0.004,-0.54186 0.01614,-0.055 0.114379,-0.063 0.167058,-0.0405 0.235135,0.10028 0.493792,0.19765 0.658627,0.39291 0.379571,0.45032 0.702998,0.95726 0.936149,1.49807 0.04199,0.0974 -0.143404,0.16378 -0.176001,0.26485 -0.0286,0.0884 -0.0449,0.19764 2.38e-4,0.27887 0.07959,0.1434 0.192855,0.29448 0.347821,0.34793 0.128932,0.0445 0.28665,-0.0127 0.399177,-0.09 0.197935,-0.13573 0.40558,-0.30004 0.49485,-0.52282 0.09927,-0.24765 0.05583,-0.53366 0.03524,-0.79983 -0.01064,-0.13732 -0.04765,-0.28073 -0.127609,-0.39291 -0.175445,-0.2458 -0.462518,-0.40243 -0.622564,-0.65855 -0.07919,-0.127 0.01058,-0.31538 -0.06593,-0.4437 -0.110887,-0.18627 -0.402326,-0.24501 -0.467493,-0.45165 -0.04696,-0.14896 0.1601,-0.27516 0.190077,-0.42836 0.03466,-0.17753 0.133853,-0.42121 -2.65e-4,-0.54239 -0.652198,-0.5887 -1.513813,-0.90223 -2.203291,-1.44701 -0.110305,-0.0871 -0.123031,-0.25956 -0.134329,-0.39979 -0.02146,-0.2659 -0.04217,-0.54504 0.0376,-0.79957 0.02953,-0.0942 0.189574,-0.0738 0.258287,-0.14472 0.387138,-0.399 0.776763,-0.80169 1.099158,-1.25492 0.227489,-0.31962 0.412433,-0.67495 0.538533,-1.04643 0.644181,-1.89759 0.441272,-4.24392 1.767443,-5.74648 0.558589,-0.63262 0.983721,1.37318 1.511221,2.032 0.178911,0.22357 0.380735,0.43153 0.604123,0.61065 0.669449,0.53658 1.358662,1.05013 2.068512,1.53221 0.946934,0.64293 1.911668,1.26126 2.898656,1.84097 0.286708,0.16827 0.638834,0.21246 0.914432,0.39846 0.853017,0.57573 1.51864,1.44357 2.453225,1.87431 0.235611,0.10874 0.479425,-0.24289 0.634285,-0.45112 0.08604,-0.11562 0.0522,-0.29077 0.02273,-0.4318 -0.03532,-0.16907 -0.07789,-0.3638 -0.211746,-0.47281 -0.341445,-0.27834 -0.788868,-0.39714 -1.155351,-0.64135 -0.429284,-0.28628 -0.789921,-0.66913 -1.225232,-0.94615 -0.538242,-0.34263 -1.147458,-0.56409 -1.6857,-0.90646 -0.435309,-0.27702 -0.795867,-0.65987 -1.225217,-0.94615 -0.631118,-0.42069 -1.353246,-0.70406 -1.950992,-1.17105 -0.59907,-0.46804 -1.129533,-1.02552 -1.612583,-1.61263 -0.343879,-0.41778 -0.601795,-0.90223 -0.851826,-1.38218 -0.33147,-0.63606 -0.671327,-1.27635 -0.889344,-1.96004 -0.08268,-0.25903 -0.08408,-0.55853 0.0038,-0.81597 0.09271,-0.27173 0.301413,-0.49716 0.511201,-0.69295 0.300011,-0.27993 0.727181,-0.41142 1.000178,-0.71781 0.06932,-0.0778 -0.03133,-0.21564 -0.09541,-0.29766 -0.147426,-0.18917 -0.300566,-0.40322 -0.522287,-0.4945 -0.217832,-0.0894 -0.538904,-0.17622 -0.706491,-0.0106 -0.547396,0.54055 -0.993616,1.2155 -1.248383,1.94152 -0.178382,0.50826 -0.101045,1.0869 0,1.61607 0.05564,0.29131 0.363749,0.4826 0.454686,0.76491 0.03789,0.11748 0.01614,0.3003 -0.09271,0.35851 -0.09104,0.049 -0.160443,-0.13891 -0.258921,-0.17013 -0.08866,-0.028 -0.191135,-0.0304 -0.278977,0 -0.09782,0.0341 -0.148987,0.16325 -0.250481,0.18389 -0.230796,0.0468 -0.5198,0.15425 -0.706437,0.0106 -0.334592,-0.25744 -0.388541,-0.7612 -0.673656,-1.07262 -0.243549,-0.2659 -0.63029,-0.3683 -0.882094,-0.62653 -0.186796,-0.1913 -0.352108,-0.43048 -0.404892,-0.69295 -0.375206,-1.86425 -0.668787,-3.74702 -0.869368,-5.638 -0.02043,-0.19262 0.219631,-0.34661 0.214074,-0.54028 -0.008,-0.27781 -0.230346,-0.51753 -0.252386,-0.79481 -0.06286,-0.79057 -0.05966,-1.58829 0,-2.3794 0.01421,-0.18838 0.212196,-0.3339 0.218943,-0.52281 0.0069,-0.19209 -0.197802,-0.35613 -0.180631,-0.54743 0.152347,-1.69809 0.40476,-3.38719 0.684504,-5.06915 0.09027,-0.54266 0.249766,-1.07315 0.423994,-1.59517 0.09168,-0.27464 0.17952,-0.56806 0.370735,-0.78555 0.05305,-0.0603 0.1134,0.12965 0.19214,0.14552 0.180234,0.0365 0.37084,0.0386 0.551603,0.005 0.598964,-0.11165 1.195467,-0.24897 1.774428,-0.43867 0.07443,-0.0246 0.142902,-0.1106 0.139912,-0.18892 -0.0039,-0.10213 -0.153908,-0.16086 -0.157215,-0.26299 -0.0026,-0.0794 0.06578,-0.17039 0.142425,-0.1905 1.524476,-0.4027 3.064404,-0.74692 4.608883,-1.06416 1.718069,-0.35269 3.462099,-0.57335 5.176128,-0.94535 0.501391,-0.10875 0.98329,-0.29872 1.45777,-0.49398 0.387323,-0.15928 0.718899,-0.45085 1.121277,-0.56727 0.101838,-0.0294 0.166159,0.16616 0.272151,0.16457 0.103346,-0.002 0.156236,-0.1524 0.257651,-0.1725 0.261832,-0.0513 0.53512,-0.0693 0.799756,-0.0349 0.188172,0.0243 0.340572,0.19844 0.530119,0.20743 0.107474,0.005 0.168937,-0.18494 0.275299,-0.16854 1.70098,0.26274 3.395213,0.58447 5.066903,0.99404 0.336391,0.0825 0.656934,0.25453 0.924454,0.47467 0.587455,0.48313 1.104662,1.04801 1.613853,1.61316 0.295222,0.32755 0.537818,0.69929 0.793776,1.05833 0.181875,0.25506 0.370152,0.508 0.519086,0.7837 0.157877,0.2921 0.204761,0.6432 0.397828,0.91361 0.255534,0.35771 0.668655,0.58261 0.925777,0.93927 0.210158,0.2913 0.270801,0.6686 0.455798,0.97684 0.223149,0.37147 0.577029,0.66093 0.763084,1.05251 0.05437,0.1143 0.03,0.3212 -0.08691,0.36962 -0.248656,0.10346 -0.542105,0.0455 -0.807985,0.003 -0.185923,-0.0302 -0.333454,-0.22939 -0.521414,-0.21749 -1.235234,0.077 -2.461234,0.2749 -3.681757,0.47996 -1.251347,0.21008 -2.49592,0.4654 -3.728984,0.76464 -0.87548,0.21246 -1.731698,0.49821 -2.590932,0.76915 -2.203212,0.694 -4.449686,1.27132 -6.595888,2.12566 -1.647188,0.65564 -3.19785,1.5359 -4.750954,2.39104 -0.186849,0.10266 -0.394864,0.25691 -0.438679,0.46566 -0.03995,0.1905 0.09022,0.40005 0.22815,0.53737 0.09848,0.0979 0.275723,0.14156 0.406083,0.0934 0.318135,-0.11694 0.545756,-0.40957 0.851323,-0.55642 0.727578,-0.34951 1.507035,-0.58314 2.236997,-0.92763 0.441706,-0.20875 0.83141,-0.51673 1.271307,-0.72892 0.559977,-0.27041 1.130614,-0.52573 1.722405,-0.7165 2.623765,-0.8464 5.265709,-1.63697 7.916966,-2.39262 0.766074,-0.21855 1.545219,-0.39529 2.330556,-0.52864 1.599247,-0.27173 3.19741,-0.61172 4.81785,-0.68633 0.28329,-0.013 0.612802,0.1741 0.733664,0.43074 0.362214,0.76862 0.263816,1.70392 0.632883,2.46936 0.546867,1.13427 1.416076,2.08359 2.078619,3.15436 0.181584,0.29342 0.332926,0.60775 0.449924,0.93239 0.227251,0.6305 0.437277,1.27027 0.579941,1.92485 0.279796,1.28428 0.553481,2.57519 0.685403,3.88302 0.09729,0.96414 0.06218,1.94046 -2.65e-4,2.90751 -0.0122,0.18917 -0.190341,0.33655 -0.221403,0.52334 -0.04416,0.26538 -0.07789,0.54981 1.59e-4,0.80751 0.04789,0.15822 0.209761,0.26406 0.350625,0.35057 0.07766,0.0476 0.181293,0.0437 0.271542,0.0312 0.135573,-0.0188 0.275008,-0.0519 0.391663,-0.1233 0.09837,-0.0603 0.224049,-0.14314 0.230479,-0.2585 0.08377,-1.4986 0.133006,-3.00514 0.03564,-4.50294 -0.06395,-0.98399 -0.383725,-1.93569 -0.517631,-2.91254 -0.01492,-0.109 -0.0208,-0.37597 0.07448,-0.3212 0.241009,0.13864 0.382244,0.41249 0.512128,0.65828 0.298265,0.56436 0.546523,1.15597 0.763878,1.75604 0.190103,0.5252 0.500301,1.05543 0.455666,1.61211 -0.127768,1.59306 -0.475324,3.175 -0.961681,4.69768 -0.119169,0.37306 -0.614918,0.51117 -0.810578,0.85037 -0.06813,0.11827 0.0024,0.29474 0.08991,0.39925 0.23868,0.28522 0.80137,0.35428 0.849524,0.72311 0.04109,0.31459 -0.41357,0.48816 -0.6663,0.68024 -0.448099,0.34052 -0.973376,0.56992 -1.423565,0.90752 -0.258921,0.19421 -0.440425,0.47758 -0.693102,0.67998 -0.191241,0.15293 -0.431112,0.23548 -0.629682,0.37889 -0.07144,0.0516 -0.142478,0.11747 -0.17235,0.20055 -0.03149,0.0873 -0.04522,0.19712 -2.64e-4,0.27834 0.07969,0.1442 0.197273,0.28443 0.348112,0.35031 0.163566,0.0717 0.361183,0.0786 0.534379,0.0355 0.67011,-0.16722 1.338951,-0.36592 1.964426,-0.65855 0.226086,-0.10584 0.466936,-0.27781 0.543216,-0.51568 0.05898,-0.18362 -0.168408,-0.35216 -0.203809,-0.54186 -0.0091,-0.0487 0.04082,-0.0942 0.07927,-0.12541 0.434076,-0.35243 0.788247,-0.88848 1.331701,-1.01971 0.365178,-0.0884 0.668576,0.36089 1.033939,0.44847 0.264768,0.0632 0.581845,0.1315 0.816636,-0.006 0.154808,-0.091 0.155628,-0.36036 0.09649,-0.52969 -0.0648,-0.18574 -0.393938,-0.21564 -0.424339,-0.40984 -0.02241,-0.14314 0.186399,-0.23125 0.312949,-0.30189 0.08334,-0.0468 0.204206,-0.0836 0.284692,-0.0323 0.21037,0.13441 0.401796,0.32094 0.515302,0.54319 0.261409,0.51118 0.26379,1.14538 0.589492,1.61819 0.182562,0.26485 0.64426,0.21405 0.846137,0.46435 0.12065,0.14975 0.109009,0.4228 -0.0061,0.57679 -0.331523,0.44344 -0.808302,0.75909 -1.245658,1.09855 -1.335326,1.03584 -2.74283,1.97696 -4.069345,3.02418 -0.352451,0.27808 -0.600154,0.67628 -0.959432,0.94563 -0.350388,0.26246 -0.812985,0.35533 -1.149773,0.63526 -0.199628,0.16589 -0.251672,0.45641 -0.410898,0.66146 -0.139488,0.17939 -0.301069,0.34422 -0.47969,0.48498 -0.218572,0.17198 -0.488182,0.27252 -0.7044,0.44767 -0.315198,0.25533 -0.479663,0.88265 -0.882676,0.83741 -0.39841,-0.0447 -0.34216,-0.75697 -0.653018,-1.00991 -0.147638,-0.12039 -0.437198,-0.12251 -0.571024,0.013 -0.287708,0.29131 -0.40767,0.71649 -0.534432,1.10569 -0.195607,0.60061 -0.19013,1.26074 -0.426958,1.84627 -0.09446,0.23362 -0.337053,0.37809 -0.535464,0.5334 -0.192855,0.15081 -0.446458,0.2159 -0.629735,0.37835 -0.562054,0.49795 -1.207637,0.948 -1.593956,1.592 -0.314033,0.52334 -0.355414,1.17422 -0.429207,1.78012 -0.01299,0.10662 0.14658,0.16562 0.179785,0.26775 0.02873,0.0886 0.05871,0.20902 -0.0021,0.2794 m 1.90799,-0.44688 v 0 c -0.0811,-0.0291 -0.179679,-0.0294 -0.243258,-0.0876 -0.202327,-0.18521 -0.414708,-0.37862 -0.535305,-0.62495 -0.06498,-0.13256 -0.07821,-0.3265 0.01249,-0.44291 0.406797,-0.52335 0.826109,-1.09432 1.416659,-1.39515 0.187748,-0.0955 0.147955,0.42069 0.09588,0.62468 m -20.72431,1.43431 v 0 c -0.206481,-0.0423 -0.46519,0.0161 -0.619469,-0.12753 -0.08983,-0.0836 0.223362,-0.1151 0.34552,-0.12753 0.177667,-0.018 0.369093,-0.0291 0.534405,0.0384 0.05538,0.0228 0.04482,0.14129 -0.0013,0.17966 m -7.062972,-2.20928 v 0 c -0.05792,0.003 -0.159597,0.0667 -0.173726,0.0103 -0.0295,-0.11747 -0.03313,-0.34528 0.08779,-0.35242 m 42.205221,-7.31864 v 0 c -0.01296,-0.36169 0.01217,-0.72655 -0.03863,-1.08479 -0.124883,-0.88265 -0.377031,-1.74519 -0.486833,-2.62996 -0.01535,-0.12356 0.02884,-0.2667 0.116946,-0.35454 0.06482,-0.0643 0.181504,-0.0455 0.271991,-0.0333 0.135732,0.0185 0.275167,0.0519 0.391848,0.1233 0.09816,0.0603 0.178594,0.15531 0.230188,0.25823 0.04101,0.082 0.03519,0.18097 0.03545,0.27252 0.0011,0.97525 0.0844,1.95686 -0.03175,2.92497 -0.03704,0.3085 -0.206904,0.60563 -0.4191,0.83264 M 31.734913,36.65198 v 0 c 0.157454,-0.15399 0.270431,-0.37412 0.472334,-0.46196 0.389467,-0.16986 0.824151,-0.20982 1.242246,-0.28522 2.707507,-0.48842 5.435599,-0.8644 8.132947,-1.406 0.549963,-0.11033 1.071721,-0.33602 1.591548,-0.54689 0.21426,-0.0868 0.420926,-0.20029 0.602827,-0.34317 0.142584,-0.11165 0.372718,-0.22913 0.357055,-0.40984 -0.0222,-0.25558 -0.236141,-0.48048 -0.44704,-0.62653 -0.120465,-0.0833 -0.305726,-0.0476 -0.439499,0.0124 -0.318717,0.14261 -0.552186,0.44264 -0.874871,0.57626 -0.590127,0.24421 -1.209967,0.42227 -1.836606,0.54583 -2.811621,0.55351 -5.684652,0.80063 -8.467883,1.48273 -0.525992,0.12885 -0.966364,0.52731 -1.338792,0.92048 -0.09358,0.0987 0.02376,0.27914 0.08964,0.3982 0.05588,0.10081 0.14433,0.21246 0.258339,0.23045 M 11.604857,34.89114 v 0 C 11.455949,34.70117 11.366864,34.44241 11.158108,34.32123 10.610526,34.00373 9.920519,33.96642 9.397041,33.61029 8.835622,33.2285 8.352334,32.71759 7.972339,32.15482 7.84526,31.9667 7.794777,31.63571 7.954029,31.47405 8.328706,31.09331 8.883325,30.9425 9.37373,30.73083 c 0.08755,-0.0378 0.211111,-0.0521 0.285989,0.007 0.05577,0.0439 0.03434,0.15531 -0.0071,0.21299 -0.175895,0.24527 -0.469662,0.3982 -0.619389,0.6604 -0.05863,0.10266 -0.0048,0.24315 0.04088,0.35216 0.0943,0.22516 0.19804,0.45932 0.370998,0.63183 0.320914,0.31988 0.704612,0.57255 1.084713,0.81941 0.391742,0.25426 0.775467,0.55351 1.225073,0.67971 0.182113,0.0513 0.348563,-0.16351 0.536523,-0.18467 0.122925,-0.014 0.286596,-0.0156 0.361844,0.0825 0.08464,0.11033 0.126629,0.32649 0.02098,0.41698 m 1.090189,-1.46421 v 0 c -0.168116,-0.21246 -0.2785,-0.48762 -0.504348,-0.63711 -0.122079,-0.081 -0.332,-0.0873 -0.43905,0.0124 -0.269187,0.25109 -0.329115,0.67072 -0.581078,0.93927 -0.05464,0.0582 -0.03596,-0.16536 -0.09366,-0.22039 -0.427594,-0.40852 -1.266693,-0.56965 -1.346306,-1.1557 -0.06525,-0.48022 0.664316,-0.71306 1.053147,-1.00251 0.35351,-0.263 0.784781,-0.40375 1.155938,-0.64135 0.377296,-0.2413 0.641985,-0.72708 1.085083,-0.79269 0.232913,-0.0344 0.378143,0.33814 0.416798,0.57044 0.116549,0.70035 0.09332,1.4224 0.0326,2.1299 -0.01683,0.19605 -0.142372,0.37279 -0.260879,0.52996 -0.105675,0.14023 -0.242279,0.26405 -0.398251,0.34475 m 43.132771,-1.06204 v 0 c -0.1778,-0.0669 -0.343429,-0.20796 -0.5334,-0.20082 -0.277548,0.0109 -0.517525,0.22966 -0.794544,0.25241 -0.209814,0.0172 -0.596106,0.073 -0.616743,-0.13652 -0.05318,-0.53949 0.397668,-1.02314 0.449527,-1.56263 0.03122,-0.32411 -0.423069,-0.7112 -0.207169,-0.95488 0.546894,-0.61807 1.490398,-0.73343 2.145506,-1.23508 0.3683,-0.28231 0.503238,-0.80618 0.877623,-1.08055 0.09869,-0.0725 0.121973,0.22225 0.126206,0.34475 0.02725,0.79772 0.18415,1.62613 -0.03228,2.39448 -0.212725,0.75512 -0.783431,1.36022 -1.210733,2.0185 m -3.376613,-0.63288 v 0 c -0.201347,-0.27331 -0.600868,-0.48075 -0.604043,-0.82021 -0.0024,-0.23839 0.363537,-0.46752 0.592137,-0.40031 0.201348,0.059 0.135202,0.40454 0.137319,0.61436 m -44.050373,0.0857 v 0 c -0.0034,-0.0579 -0.06657,-0.15954 -0.01029,-0.17356 0.117475,-0.0296 0.345413,-0.0333 0.352557,0.0876 M 51.108468,28.9841 v 0 c 0.226298,-0.77258 0.41238,-1.55813 0.678921,-2.31775 0.02797,-0.0796 0.112501,-0.13705 0.192141,-0.16483 0.08731,-0.0307 0.190764,-0.0318 0.277812,0 0.08334,0.0302 0.156104,0.0976 0.201348,0.17383 0.33946,0.57097 0.667279,1.15067 0.944562,1.75392 0.03969,0.0868 0.05212,0.21114 -0.0071,0.28602 -0.04392,0.0558 -0.151871,0.0294 -0.21299,-0.007 -0.152664,-0.0913 -0.232304,-0.28839 -0.396346,-0.35745 -0.16457,-0.0693 -0.357187,-0.0526 -0.535252,-0.0349 -0.137054,0.0138 -0.279929,0.0487 -0.392906,0.12727 -0.247756,0.17224 -0.423836,0.43365 -0.668496,0.61013 m -43.377749,0.0132 v 0 c -0.16129,0.0754 -0.33782,0.32782 -0.483844,0.22595 C 6.742491,28.88397 6.423721,28.17516 5.875927,27.71637 5.599967,27.48539 5.197377,27.45814 4.898477,27.25758 4.803337,27.19378 4.825717,27.02766 4.738537,26.95331 4.225695,26.51595 3.640225,26.16988 3.120239,25.74125 c -0.163856,-0.1352 -0.40169,-0.26273 -0.426111,-0.4736 -0.01426,-0.12356 0.239183,-0.12197 0.360336,-0.0947 0.796025,0.17886 1.578768,0.42095 2.344711,0.70194 0.374703,0.13732 0.683577,0.42862 1.064339,0.54822 0.22606,0.0709 0.502126,0.12144 0.710803,0.009 0.228547,-0.12277 0.490511,-0.37783 0.451273,-0.63448 -0.06387,-0.41751 -0.510672,-0.67759 -0.709004,-1.05066 -0.04373,-0.0823 -0.06017,-0.21007 0.0019,-0.27966 0.08292,-0.0931 0.230081,-0.10848 0.354197,-0.12039 0.408438,-0.0399 0.931016,0.24607 1.230683,-0.0344 0.540597,-0.50562 0.563933,-1.37583 0.950992,-2.00687 0.04162,-0.068 0.124698,0.15902 0.19939,0.1315 0.153379,-0.0566 0.308081,-0.18044 0.356764,-0.33655 0.08017,-0.25691 0.04622,-0.54239 1.85e-4,-0.80751 -0.0177,-0.10213 -0.149886,-0.15266 -0.183806,-0.25056 -0.03048,-0.0878 -0.05694,-0.20558 1.33e-4,-0.27913 0.314404,-0.40455 0.618939,-1.33985 1.072488,-1.10146 0.572373,0.30109 0.352769,1.24989 0.430292,1.89177 0.01291,0.10689 -0.16936,0.16774 -0.168566,0.27543 7.94e-4,0.10319 0.152268,0.15637 0.172482,0.2577 0.05231,0.26194 0.03807,0.5334 0.03876,0.80063 5.3e-4,0.18204 0.01921,0.37121 -0.03527,0.54478 -0.112289,0.35772 -0.379121,0.66066 -0.458099,1.02711 -0.07591,0.35216 -0.08517,0.73184 0.0038,1.08083 0.04043,0.15875 0.199337,0.29448 0.357452,0.33681 0.09951,0.0267 0.159412,-0.13838 0.256884,-0.17198 0.128641,-0.0442 0.324962,0.0553 0.40431,-0.055 0.321945,-0.44847 0.243364,-1.20068 0.709586,-1.49622 0.251301,-0.15928 0.498819,0.39317 0.578432,0.67971 0.06593,0.2376 -0.2345,0.47176 -0.19132,0.71438 0.05188,0.29183 0.343509,0.48948 0.454316,0.76411 0.05138,0.12753 0.144886,0.35481 0.01982,0.41196 -1.550035,0.70723 -3.221751,1.11575 -4.795996,1.76715 m 31.921476,-2.032 v 0 c 0.185288,-0.0114 0.375312,0.009 0.555863,-0.0341 0.588037,-0.14076 1.231583,-0.18679 1.739186,-0.51541 0.529749,-0.3429 0.943769,-0.86942 1.251585,-1.42028 0.132503,-0.23733 0.04482,-0.54742 -0.0026,-0.81492 -0.01812,-0.10239 -0.150601,-0.1524 -0.186081,-0.25029 -0.05099,-0.14023 0.029,-0.32756 -0.06578,-0.44291 -0.272044,-0.33073 -0.604652,-0.62548 -0.980969,-0.83027 -0.724376,-0.39396 -1.484207,-0.75221 -2.285577,-0.94668 -0.523531,-0.127 -1.096353,-0.14155 -1.61618,0 -0.391081,0.10637 -0.723239,0.40191 -0.988087,0.70856 -0.305223,0.35375 -0.533426,0.78158 -0.680852,1.22502 -0.08649,0.26008 -0.109299,0.57097 0,0.82232 0.229949,0.52917 0.626401,0.9705 0.978059,1.42796 0.256407,0.33337 0.524007,0.66463 0.842301,0.93954 0.104246,0.0902 0.255878,0.11509 0.393065,0.12779 M 28.559636,26.33373 v 0 c 0.28501,-0.19764 0.586423,-0.37333 0.855054,-0.59267 0.2218,-0.18124 0.427144,-0.38444 0.610632,-0.60404 0.263869,-0.31618 0.518875,-0.64347 0.72726,-0.99854 0.179017,-0.30506 0.356447,-0.62468 0.428334,-0.97102 0.07374,-0.35507 0.101627,-0.74004 -0.0011,-1.08796 -0.13208,-0.44821 -0.404442,-0.84826 -0.680879,-1.22503 -0.229182,-0.3122 -0.509349,-0.5924 -0.821531,-0.82153 -0.376555,-0.27649 -0.768615,-0.58076 -1.224941,-0.68077 -0.61232,-0.13441 -1.290654,-0.21193 -1.880587,0 -0.867164,0.31168 -1.665096,0.85651 -2.316721,1.50813 -0.467832,0.46783 -0.731623,1.12024 -0.93993,1.74836 -0.114189,0.34422 -0.07464,0.7329 -7.93e-4,1.08797 0.0719,0.34634 0.245528,0.66807 0.428349,0.97102 0.229476,0.37994 0.434277,0.81359 0.800534,1.06442 0.520721,0.35692 1.143744,0.56832 1.762779,0.69188 0.610267,0.12145 1.244772,0.0564 1.86654,0.0315 M 27.39965,24.83223 v 0 c -0.377528,-0.0116 -1.405405,0.22595 -1.132586,-0.0354 0.566971,-0.54266 1.413415,-0.69295 2.156767,-0.9451 0.116761,-0.0397 0.291333,-0.0114 0.35822,0.0923 0.04805,0.0743 -0.08861,0.16193 -0.163169,0.20982 m 11.202644,0.44238 v 0 c -0.09036,0.0744 -0.160682,0.26273 -0.27104,0.22357 -0.114167,-0.0405 -0.133746,-0.23918 -0.09006,-0.35216 0.05892,-0.1524 0.193014,-0.34263 0.356341,-0.33681 0.121153,0.005 0.08803,0.23151 0.08927,0.35269 m 2.020253,-0.13573 v 0 c 0.0044,0.0717 0.06908,0.16986 0.01328,0.21484 -0.0725,0.0587 -0.213783,0.0667 -0.27977,7.9e-4 -0.08689,-0.0868 -0.175102,-0.28231 -0.07964,-0.35957 m -3.080623,-0.44608 v 0 c -0.03164,-0.11536 -0.09292,-0.22675 -0.09493,-0.34634 -5.29e-4,-0.0386 0.06744,-0.10716 0.08797,-0.0746 0.06472,0.10239 0.08578,0.23151 0.08776,0.35242 M 25.67012,23.16008 v 0 c 0.02439,-0.11774 0.01678,-0.24712 0.07317,-0.35348 0.144854,-0.27305 0.218897,-0.703 0.521284,-0.76676 0.229976,-0.0487 0.325949,0.35189 0.416981,0.56859 0.05765,0.13732 0.09284,0.32332 0.0094,0.44661 -0.143598,0.2122 -0.379225,0.36645 -0.619506,0.45562 -0.11879,0.0444 -0.274564,-0.004 -0.370017,-0.0876 M 7.184149,22.13877 v 0 C 6.623841,21.84032 6.049854,21.56621 5.503225,21.24342 5.426285,21.19822 5.336934,21.13044 5.326642,21.04181 c -0.05157,-0.44477 -0.09133,-0.90435 -0.0026,-1.34329 0.03688,-0.1823 0.181054,-0.47546 0.360389,-0.42598 0.299985,0.0825 0.458205,0.43154 0.621321,0.69665 0.07025,0.11403 -0.05667,0.3212 0.05281,0.39846 0.380603,0.26829 1.089395,0.1233 1.286139,0.54531 M 55.96791,20.59334 v 0 c -0.182827,10e-4 -0.386821,0.0892 -0.548746,0.004 -0.111125,-0.0585 -0.112183,-0.23125 -0.121444,-0.35666 -0.02011,-0.26591 -0.02011,-0.53843 0.03493,-0.79957 0.02143,-0.10186 0.157692,-0.15081 0.186267,-0.25082 0.04921,-0.17225 0.03413,-0.35693 0.03889,-0.53605 0.0069,-0.26405 0.04075,-0.53234 -0.0037,-0.79296 -0.03201,-0.18653 -0.182562,-0.33787 -0.221456,-0.52308 -0.03784,-0.18018 -0.04974,-0.37385 -0.0042,-0.55218 0.123031,-0.48525 0.263525,-0.97552 0.503502,-1.415 0.03784,-0.0693 0.169598,0.0362 0.213254,0.10187 0.05027,0.0759 0.05265,0.18203 0.0336,0.27093 -0.03916,0.18495 -0.203729,0.34026 -0.202935,0.52917 7.94e-4,0.18971 0.197379,0.34052 0.207433,0.52996 0.0598,1.14432 0.03466,2.29235 -2.64e-4,3.43773 m -9.116854,-0.71623 v 0 c -0.04344,-0.11297 -0.129143,-0.21801 -0.130387,-0.33919 -0.0013,-0.1225 7.94e-4,-0.34555 0.123323,-0.34634 0.121972,-0.001 0.122422,0.22225 0.123692,0.34422 m -0.381264,-0.71702 v 0 c -0.03162,-0.11536 -0.09287,-0.22675 -0.09483,-0.34634 -5.29e-4,-0.0386 0.06739,-0.10716 0.08795,-0.0746 0.06469,0.10239 0.08578,0.23151 0.08779,0.35242 m -0.301533,-0.74609 v 0 c -0.300275,-0.52017 -0.569436,-1.05966 -0.900853,-1.56052 -0.11012,-0.16642 -0.298688,-0.26908 -0.416269,-0.43021 -0.372057,-0.51011 -0.731705,-1.03134 -1.048226,-1.57744 -0.17735,-0.30613 -0.372216,-0.62177 -0.428413,-0.97102 -0.07393,-0.45932 -0.410845,-1.47559 0.04763,-1.39542 0.591449,0.10345 0.568033,1.05992 0.898921,1.56104 0.110305,0.16696 0.313188,0.26088 0.417142,0.4318 0.306414,0.50404 0.565442,1.03691 0.803778,1.57639 0.254238,0.57574 0.510831,1.15597 0.671883,1.76424 m 9.4352,-2.28917 v 0 c -0.03149,-0.11562 -0.09287,-0.22701 -0.09472,-0.34661 -5.3e-4,-0.0386 0.07779,-0.11165 0.08784,-0.0746 m -0.780785,-1.68513 v 0 c -0.287867,-0.0124 -0.705644,0.20373 -0.8636,-0.037 -0.128323,-0.19606 0.359569,-0.30903 0.5715,-0.40878 0.08678,-0.0405 0.234685,-0.0744 0.287073,0.006"
     style="display:inline;fill:#000000;stroke:#005a52;stroke-width:0.264583;stroke-opacity:1"
     id="path59314" />
</svg>
