<?xml version="1.0" encoding="UTF-8" standalone="no"?>
<svg
   xmlns:dc="http://purl.org/dc/elements/1.1/"
   xmlns:cc="http://creativecommons.org/ns#"
   xmlns:rdf="http://www.w3.org/1999/02/22-rdf-syntax-ns#"
   xmlns:svg="http://www.w3.org/2000/svg"
   xmlns="http://www.w3.org/2000/svg"
   height="166.97301"
   width="512.00012"
   xml:space="preserve"
   viewBox="0 0 512.00012 166.97301"
   y="0px"
   x="0px"
   id="Layer_1"
   version="1.1"><metadata
   id="metadata9"><rdf:RDF><cc:Work
       rdf:about=""><dc:format>image/svg+xml</dc:format><dc:type
         rdf:resource="http://purl.org/dc/dcmitype/StillImage" /><dc:title></dc:title></cc:Work></rdf:RDF></metadata><defs
   id="defs9" />
<path
   id="path2"
   d="m 479.58409,70.661 c -7.012,0 -12.716,5.705 -12.716,12.716 0,7.011 5.705,12.716 12.716,12.716 7.011,0 12.716,-5.705 12.716,-12.716 0,-7.011 -5.706,-12.716 -12.716,-12.716 z" />
<path
   id="path903"
   d="m 5.816852,120.26626 9.229804,-55.33035 36.995327,-16.70679 20.62186,0.51949 29.086577,16.09847 c 0,0 5.98903,6.43522 15.93085,13.99417 9.94182,7.55895 18.45507,14.52802 18.45507,14.52802 l 27.69389,12.98347 10.03512,-3.67448 44.7665,-59.08717 77.8547,-39.76842 51.89902,11.9519 30.97467,11.49518 53.62438,-6.04818 27.83368,11.73176 32.71307,34.26959 3.69561,25.36248 -4.43327,17.47673 -32.38767,7.43342 -29.02242,0.83293 -16.49544,13.95443 -17.72883,10.89892 -9.91559,7.01031 -7.28945,6.17589 -43.59931,-20.54841 -43.29859,6.75702 -30.69122,-13.06958 -12.75613,26.54332 -30.66081,6.24691 -21.3574,-24.20537 -17.78036,-5.3068 -32.39542,7.3212 L 96.7224,105.97612 58.940011,87.11323 43.523327,97.38893 Z"
   style="fill:#bc7545;fill-opacity:1" />
<path
   d="m 501.3473,55.79033 c -2.808,-4.213 -13.205,-15.174 -24.208,-24.777 -23.141,-20.199 -32.368,-20.199 -35.403,-20.199 -9.614,0 -48.016,5.093 -59.746,6.681 -8.843,-5.134 -33.975,-17.371 -72.578,-17.371 -14.453,0 -43.035,2.496 -72.075,19.213 -28.194,16.231 -48.027,40.756 -58.975,72.921 -1.569,1.226 -5.028,3.405 -9.99,3.617 -8.161,0.351 -17.82,-4.614 -27.914,-14.361 l -0.414,-0.4 c -11.361,-10.97 -26.921,-25.995 -44.951,-35.253 -22.451,-11.529 -43.975,-11.678 -63.976,-0.442 -32.222,18.096 -30.841,75.804 -30.765,78.253 0.078,2.594 1.367,5.001 3.482,6.506 2.115,1.504 4.811,1.931 7.289,1.154 14.553,-4.566 23.983,-13.107 32.303,-20.642 8.862,-8.025 15.86,-14.363 27.138,-14.363 14.307,0 31.639,14.06 45.566,25.357 8.867,7.192 16.524,13.403 23.495,16.5 22.057,9.805 42.945,6.163 52.504,3.526 l 5.109,5.109 c 2.162,2.39 19.094,20.277 41.405,20.277 h 8.836 c 0.006,0 0.011,0.001 0.018,0.001 0.006,0 0.01,-0.001 0.016,-0.001 h 26.516 c 4.581,0 8.293,-3.713 8.293,-8.293 0,-4.58 -3.712,-8.293 -8.293,-8.293 h -5.746 c 2.22,-2.727 4.452,-5.809 6.542,-9.254 6.195,1.878 19.509,5.217 35.852,5.217 10.324,0 21.854,-1.342 33.552,-5.221 l 49.939,24.97 c 0.048,0.024 0.098,0.04 0.147,0.063 0.199,0.095 0.401,0.182 0.609,0.261 0.083,0.032 0.166,0.062 0.249,0.091 0.208,0.072 0.419,0.134 0.634,0.189 0.083,0.021 0.165,0.045 0.249,0.064 0.223,0.05 0.451,0.088 0.681,0.119 0.075,0.01 0.149,0.025 0.224,0.034 0.301,0.033 0.606,0.053 0.917,0.053 h 17.693 c 4.581,0 8.293,-3.713 8.293,-8.293 0,-4.58 -3.712,-8.293 -8.293,-8.293 h -9.399 v -3.096 c 8.302,-2.856 22.26,-9.678 31.992,-24.863 1.283,0.202 2.596,0.314 3.945,0.314 h 35.385 c 1.287,0 2.558,-0.3 3.71,-0.876 31.121,-15.563 31.121,-21.309 31.121,-25.112 0,-6.589 -6.224,-33.956 -10.978,-41.087 z m -219.442,70.218 c 1.425,-4.336 -0.92,-9.012 -5.254,-10.457 -4.349,-1.449 -9.043,0.899 -10.491,5.246 -5.34,16.019 -16.894,26.226 -21.373,29.715 h -6.145 c -9.552,0 -18.169,-5.39 -23.513,-9.677 5.11,-6.132 8.538,-12.78 11.66,-18.84 5.673,-11.004 10.572,-20.507 24.009,-26.355 36.322,-15.81 68.82,0.945 77.902,6.436 l 6.168,24.673 c -22.182,6.033 -43.575,1.792 -52.963,-0.741 z m 193.608,-19.728 h -33.406 c -6.341,0 -13.681,-7.821 -19.04,-13.533 l -1.478,-1.57 c -3.15,-3.325 -8.401,-3.467 -11.725,-0.317 -3.325,3.15 -3.467,8.399 -0.316,11.725 l 1.423,1.513 c 3.399,3.621 7.374,7.853 11.978,11.382 -10.319,14.411 -25.762,17.332 -26.437,17.453 -3.998,0.667 -6.93,4.126 -6.93,8.181 v 4.274 l -37.664,-18.831 -7.921,-31.684 c -0.482,-1.926 -1.638,-3.616 -3.26,-4.761 -1.849,-1.307 -45.865,-31.745 -96.558,-9.678 -18.854,8.207 -25.909,21.891 -32.132,33.964 -2.733,5.302 -5.364,10.399 -8.897,14.882 l -2.874,-2.874 c -2.342,-2.342 -5.884,-3.052 -8.962,-1.829 -0.218,0.086 -22.148,8.59 -44.952,-1.545 -4.964,-2.206 -12.161,-8.045 -19.782,-14.226 -15.963,-12.948 -35.827,-29.061 -56.014,-29.061 -17.673,0 -28.144,9.484 -38.271,18.656 -4.808,4.352 -9.448,8.557 -14.929,11.95 1.47,-17.266 6.817,-42.009 21.877,-50.467 34.736,-19.508 67.562,12.192 89.283,33.167 l 0.416,0.4 c 13.635,13.167 27.147,19.56 40.148,19 14.047,-0.604 21.882,-9.145 22.73,-10.116 0.733,-0.841 1.289,-1.822 1.635,-2.884 9.487,-29.154 27.036,-51.27 52.163,-65.734 18.768,-10.805 42.022,-17.001 63.798,-17.001 40.083,0 63.673,14.668 66.232,16.34 1.674,1.094 3.688,1.548 5.665,1.275 4.964,-0.681 12.951,-1.745 21.559,-2.837 -4.426,10.92 -2.218,23.921 6.625,32.764 3.245,3.244 7.074,5.652 11.378,7.158 0.906,0.317 1.829,0.467 2.738,0.467 3.427,0 6.634,-2.141 7.829,-5.558 1.512,-4.324 -0.767,-9.054 -5.091,-10.566 -1.934,-0.676 -3.659,-1.764 -5.125,-3.23 -5.319,-5.318 -5.319,-13.969 0,-19.287 2.575,-2.576 6,-3.994 9.644,-3.994 3.644,0 7.068,1.419 9.643,3.994 3.091,3.091 4.491,7.348 3.844,11.679 -0.677,4.53 2.446,8.751 6.976,9.429 4.528,0.675 8.751,-2.446 9.429,-6.975 0.421,-2.815 0.425,-5.649 0.056,-8.422 1.693,1.369 3.493,2.877 5.419,4.559 10.822,9.447 19.757,19.146 21.294,21.451 2.155,3.505 6.853,21.881 7.969,29.491 -3.398,2.656 -11.646,7.556 -19.987,11.826 z"
   id="path4" /></svg>